# xmcd CD database file
#
# Track frame offsets:
#	183
#	13433
#	27708
#	39658
#	60658
#	73208
#	86358
#	100833
#	115608
#	128883
#	143583
#	157983
#	169308
#	182433
#	196158
#	208983
#	237483
#	255458
#	267033
#	281433
#	299208
#
# Disc length: 4174 seconds
#
# Revision: 1
# Processed by: cddbd v1.5.1PL0 Copyright (c) Steve Scherf et al.
# Submitted via: CDex 1.51
#
DISCID=3c104c15
DTITLE=III 27 Ben Webster - The Frog
DYEAR=1991
DGENRE=Jazz
TTITLE0=All Too Soon
TTITLE1=You're Only Happy When I'm Blue
TTITLE2=Ten Lessons With Timothy
TTITLE3=How Higth the Moon
TTITLE4=Reach
TTITLE5=One O'Clock Jump
TTITLE6=Star Dust
TTITLE7=Randle's Island
TTITLE8=Old Folks
TTITLE9=King's Island
TTITLE10=You're My Thrill
TTITLE11=Hoot
TTITLE12=Pouting
TTITLE13=The Iron Hat
TTITLE14='s Wonderful
TTITLE15=The Touch of Your Lips
TTITLE16=When You Lover Has Gone
TTITLE17=How Deep Is the Ocean
TTITLE18=In the Wee Small Hours of the Morning
TTITLE19=Sunday
TTITLE20=When Ash Meets Henry
EXTD=YEAR: 1991
EXTT0=
EXTT1=
EXTT2=
EXTT3=
EXTT4=
EXTT5=
EXTT6=
EXTT7=
EXTT8=
EXTT9=
EXTT10=
EXTT11=
EXTT12=
EXTT13=
EXTT14=
EXTT15=
EXTT16=
EXTT17=
EXTT18=
EXTT19=
EXTT20=
PLAYORDER=
